# xmcd
#
# Track frame offsets: 
#        150
#        27130
#        47992
#        68962
#        88517
#        108125
#
# Disc length: 1730 seconds
#
# Revision: 3
# Processed by: cddbd v1.5.1PL0 Copyright (c) Steve Scherf et al.
# Submitted via: ExactAudioCopy v0.95a5
#
DISCID=4506c006
DTITLE=Mick Jagger - Sweet Thing
DYEAR=1992
DGENRE=Pop
TTITLE0=Sweet Thing (extended remix)
TTITLE1=Sweet Thing (stripped down version)
TTITLE2=Sweet Thing (stripped down instrumental)
TTITLE3=Sweet Thing (remix edit)
TTITLE4=Sweet Thing (funky guitar edit)
TTITLE5=Sweet Thing (extended sax instrumental)
EXTD=
EXTT0=
EXTT1=
EXTT2=
EXTT3=
EXTT4=
EXTT5=
PLAYORDER=
